<svg width="203" height="55" viewBox="0 0 203 55" fill="none" xmlns="http://www.w3.org/2000/svg">
<path d="M29.6844 13.132L21.2184 37H13.9424L5.47642 13.132H11.6644L17.5804 31.152L23.5304 13.132H29.6844ZM49.9984 27.208C49.9984 27.752 49.9644 28.3187 49.8964 28.908H36.7384C36.829 30.0867 37.203 30.9933 37.8604 31.628C38.5404 32.24 39.3677 32.546 40.3424 32.546C41.793 32.546 42.8017 31.934 43.3684 30.71H49.5564C49.239 31.9567 48.661 33.0787 47.8224 34.076C47.0064 35.0733 45.975 35.8553 44.7284 36.422C43.4817 36.9887 42.0877 37.272 40.5464 37.272C38.6877 37.272 37.033 36.8753 35.5824 36.082C34.1317 35.2887 32.9984 34.1553 32.1824 32.682C31.3664 31.2087 30.9584 29.486 30.9584 27.514C30.9584 25.542 31.355 23.8193 32.1484 22.346C32.9644 20.8727 34.0977 19.7393 35.5484 18.946C36.999 18.1527 38.665 17.756 40.5464 17.756C42.3824 17.756 44.0144 18.1413 45.4424 18.912C46.8704 19.6827 47.981 20.782 48.7744 22.21C49.5904 23.638 49.9984 25.304 49.9984 27.208ZM44.0484 25.678C44.0484 24.6807 43.7084 23.8873 43.0284 23.298C42.3484 22.7087 41.4984 22.414 40.4784 22.414C39.5037 22.414 38.6764 22.6973 37.9964 23.264C37.339 23.8307 36.931 24.6353 36.7724 25.678H44.0484ZM64.6255 17.824C66.8469 17.824 68.6149 18.5493 69.9295 20C71.2669 21.428 71.9355 23.4 71.9355 25.916V37H66.1555V26.698C66.1555 25.4287 65.8269 24.4427 65.1695 23.74C64.5122 23.0373 63.6282 22.686 62.5175 22.686C61.4069 22.686 60.5229 23.0373 59.8655 23.74C59.2082 24.4427 58.8795 25.4287 58.8795 26.698V37H53.0655V18.028H58.8795V20.544C59.4689 19.7053 60.2622 19.048 61.2595 18.572C62.2569 18.0733 63.3789 17.824 64.6255 17.824ZM86.5497 32.07V37H83.5917C81.4837 37 79.8404 36.49 78.6617 35.47C77.483 34.4273 76.8937 32.7387 76.8937 30.404V22.856H74.5817V18.028H76.8937V13.404H82.7077V18.028H86.5157V22.856H82.7077V30.472C82.7077 31.0387 82.8437 31.4467 83.1157 31.696C83.3877 31.9453 83.841 32.07 84.4757 32.07H86.5497ZM108.522 18.028V37H102.708V34.416C102.119 35.2547 101.314 35.9347 100.294 36.456C99.2969 36.9547 98.1862 37.204 96.9622 37.204C95.5115 37.204 94.2309 36.8867 93.1202 36.252C92.0095 35.5947 91.1482 34.654 90.5362 33.43C89.9242 32.206 89.6182 30.7667 89.6182 29.112V18.028H95.3982V28.33C95.3982 29.5993 95.7269 30.5853 96.3842 31.288C97.0415 31.9907 97.9255 32.342 99.0362 32.342C100.17 32.342 101.065 31.9907 101.722 31.288C102.38 30.5853 102.708 29.5993 102.708 28.33V18.028H108.522ZM118.512 21.19C119.192 20.1473 120.042 19.3313 121.062 18.742C122.082 18.13 123.216 17.824 124.462 17.824V23.978H122.864C121.414 23.978 120.326 24.2953 119.6 24.93C118.875 25.542 118.512 26.63 118.512 28.194V37H112.698V18.028H118.512V21.19ZM145.125 27.208C145.125 27.752 145.091 28.3187 145.023 28.908H131.865C131.956 30.0867 132.33 30.9933 132.987 31.628C133.667 32.24 134.495 32.546 135.469 32.546C136.92 32.546 137.929 31.934 138.495 30.71H144.683C144.366 31.9567 143.788 33.0787 142.949 34.076C142.133 35.0733 141.102 35.8553 139.855 36.422C138.609 36.9887 137.215 37.272 135.673 37.272C133.815 37.272 132.16 36.8753 130.709 36.082C129.259 35.2887 128.125 34.1553 127.309 32.682C126.493 31.2087 126.085 29.486 126.085 27.514C126.085 25.542 126.482 23.8193 127.275 22.346C128.091 20.8727 129.225 19.7393 130.675 18.946C132.126 18.1527 133.792 17.756 135.673 17.756C137.509 17.756 139.141 18.1413 140.569 18.912C141.997 19.6827 143.108 20.782 143.901 22.21C144.717 23.638 145.125 25.304 145.125 27.208ZM139.175 25.678C139.175 24.6807 138.835 23.8873 138.155 23.298C137.475 22.7087 136.625 22.414 135.605 22.414C134.631 22.414 133.803 22.6973 133.123 23.264C132.466 23.8307 132.058 24.6353 131.899 25.678H139.175Z" fill="black"/>
<path d="M177.127 45.4902L154.721 11.3726H199.534L177.127 45.4902Z" fill="#D23763"/>
<path d="M177.412 35.8235L164.608 16.2059H190.215L177.412 35.8235Z" fill="#0E2F4F"/>
</svg>
